<?xml version="1.0" encoding="UTF-8" standalone="no"?>
<svg
   version="1.0"
   width="476.27029pt"
   height="454.91312pt"
   viewBox="0 0 476.27029 454.91312"
   preserveAspectRatio="xMidYMid"
   id="svg2"
   sodipodi:docname="ver_p.svg"
   inkscape:version="1.4.2 (f4327f4, 2025-05-13)"
   xmlns:inkscape="http://www.inkscape.org/namespaces/inkscape"
   xmlns:sodipodi="http://sodipodi.sourceforge.net/DTD/sodipodi-0.dtd"
   xmlns="http://www.w3.org/2000/svg"
   xmlns:svg="http://www.w3.org/2000/svg">
  <defs
     id="defs2" />
  <sodipodi:namedview
     id="namedview2"
     pagecolor="#ffffff"
     bordercolor="#000000"
     borderopacity="0.25"
     inkscape:showpageshadow="2"
     inkscape:pageopacity="0.0"
     inkscape:pagecheckerboard="0"
     inkscape:deskcolor="#d1d1d1"
     inkscape:document-units="pt"
     showgrid="false"
     inkscape:zoom="0.78835607"
     inkscape:cx="318.38405"
     inkscape:cy="235.29977"
     inkscape:window-width="1920"
     inkscape:window-height="991"
     inkscape:window-x="-9"
     inkscape:window-y="-9"
     inkscape:window-maximized="1"
     inkscape:current-layer="g3" />
  <g
     fill="none"
     stroke="currentColor"
     stroke-width="0.0466264"
     id="g3"
     transform="matrix(22.580654,0,0,23.214215,-32.832543,-40.280886)"
     style="stroke-width:1.09193;stroke-dasharray:none">
    <path
       d="M 21.544,11.045 C 21.848,11.471 22,11.685 22,12 22,12.316 21.848,12.529 21.544,12.955 20.178,14.871 16.689,19 12,19 7.31,19 3.822,14.87 2.456,12.955 2.152,12.529 2,12.315 2,12 2,11.684 2.152,11.471 2.456,11.045 3.822,9.129 7.311,5 12,5 c 4.69,0 8.178,4.13 9.544,6.045 z"
       id="path2"
       style="stroke-width:1.09193;stroke-dasharray:none" />
    <path
       d="m 15,12 a 3,3 0 1 0 -6,0 3,3 0 0 0 6,0 z"
       id="path3"
       style="stroke-width:1.09193;stroke-dasharray:none;fill:#000000;fill-opacity:1" />
  </g>
</svg>
